<svg>
  <path xmlns="http://www.w3.org/2000/svg" fill-rule="evenodd" clip-rule="evenodd"
    d="M18 30a3 3 0 0 0 3-3c0-1.657-1.5 0-3-17-1.5 17-3 15.343-3 17a3 3 0 0 0 3 3z"
  ></path>
  <path
    xmlns="http://www.w3.org/2000/svg" fill-rule="evenodd" clip-rule="evenodd"
    d="M15.687 12.5l.3-.164a1.5 1.5 0 0 0 .75-1.021l.142-.712a.75.75 0 0 1 .736-.603h.77a.75.75 0 0 1 .736.603l.142.712a1.5 1.5 0 0 0 .75 1.02l.3.165a5.586 5.586 0 0 1 3.24 4.47l.54 4.863c.1.906.563 1.733 1.282 2.292l.354.275a1.5 1.5 0 0 1 .534 1.548L26.25 26a1.32 1.32 0 0 1-1.28 1H11.03a1.32 1.32 0 0 1-1.28-1l-.013-.052a1.5 1.5 0 0 1 .534-1.548l.354-.275a3.375 3.375 0 0 0 1.282-2.292l.54-4.864a5.586 5.586 0 0 1 3.24-4.469z"
  ></path>
</svg>
